<mxfile host="app.diagrams.net" agent="Mozilla/5.0 (Macintosh; Intel Mac OS X 10_15_7) AppleWebKit/537.36 (KHTML, like Gecko) Chrome/133.0.0.0 Safari/537.36" version="26.1.1">
  <diagram name="Page-1" id="W4KQR-VjXRdu0ORoTMsX">
    <mxGraphModel dx="989" dy="483" grid="1" gridSize="10" guides="1" tooltips="1" connect="1" arrows="1" fold="1" page="1" pageScale="1" pageWidth="827" pageHeight="1169" math="0" shadow="0">
      <root>
        <mxCell id="0" />
        <mxCell id="1" parent="0" />
        <mxCell id="nvG7aLy1ocM7NbG-j375-8" style="rounded=0;orthogonalLoop=1;jettySize=auto;html=1;exitX=0.25;exitY=0;exitDx=0;exitDy=0;entryX=0.5;entryY=1;entryDx=0;entryDy=0;" edge="1" parent="1" source="nvG7aLy1ocM7NbG-j375-1" target="nvG7aLy1ocM7NbG-j375-6">
          <mxGeometry relative="1" as="geometry" />
        </mxCell>
        <mxCell id="nvG7aLy1ocM7NbG-j375-9" value="Port 8080" style="edgeLabel;html=1;align=center;verticalAlign=middle;resizable=0;points=[];" vertex="1" connectable="0" parent="nvG7aLy1ocM7NbG-j375-8">
          <mxGeometry x="-0.1786" y="-1" relative="1" as="geometry">
            <mxPoint as="offset" />
          </mxGeometry>
        </mxCell>
        <mxCell id="nvG7aLy1ocM7NbG-j375-19" style="rounded=0;orthogonalLoop=1;jettySize=auto;html=1;exitX=0.75;exitY=0;exitDx=0;exitDy=0;entryX=0.5;entryY=1;entryDx=0;entryDy=0;" edge="1" parent="1" source="nvG7aLy1ocM7NbG-j375-1" target="nvG7aLy1ocM7NbG-j375-18">
          <mxGeometry relative="1" as="geometry" />
        </mxCell>
        <mxCell id="nvG7aLy1ocM7NbG-j375-1" value="OpenSesame&lt;div&gt;Hub&lt;/div&gt;" style="rounded=0;whiteSpace=wrap;html=1;" vertex="1" parent="1">
          <mxGeometry x="320" y="240" width="120" height="60" as="geometry" />
        </mxCell>
        <mxCell id="nvG7aLy1ocM7NbG-j375-15" style="edgeStyle=orthogonalEdgeStyle;rounded=0;orthogonalLoop=1;jettySize=auto;html=1;" edge="1" parent="1" source="nvG7aLy1ocM7NbG-j375-2" target="nvG7aLy1ocM7NbG-j375-12">
          <mxGeometry relative="1" as="geometry" />
        </mxCell>
        <mxCell id="nvG7aLy1ocM7NbG-j375-2" value="Client Application" style="rounded=0;whiteSpace=wrap;html=1;" vertex="1" parent="1">
          <mxGeometry x="240" y="440" width="120" height="60" as="geometry" />
        </mxCell>
        <mxCell id="nvG7aLy1ocM7NbG-j375-6" value="Management Page" style="rounded=0;whiteSpace=wrap;html=1;" vertex="1" parent="1">
          <mxGeometry x="240" y="140" width="120" height="60" as="geometry" />
        </mxCell>
        <mxCell id="nvG7aLy1ocM7NbG-j375-11" style="rounded=0;orthogonalLoop=1;jettySize=auto;html=1;exitX=0.5;exitY=0;exitDx=0;exitDy=0;entryX=0.75;entryY=1;entryDx=0;entryDy=0;" edge="1" parent="1" source="nvG7aLy1ocM7NbG-j375-7" target="nvG7aLy1ocM7NbG-j375-1">
          <mxGeometry relative="1" as="geometry" />
        </mxCell>
        <mxCell id="nvG7aLy1ocM7NbG-j375-7" value="TCP Listener" style="rounded=0;whiteSpace=wrap;html=1;" vertex="1" parent="1">
          <mxGeometry x="400" y="340" width="120" height="60" as="geometry" />
        </mxCell>
        <mxCell id="nvG7aLy1ocM7NbG-j375-13" style="rounded=0;orthogonalLoop=1;jettySize=auto;html=1;exitX=0.5;exitY=0;exitDx=0;exitDy=0;entryX=0.25;entryY=1;entryDx=0;entryDy=0;" edge="1" parent="1" source="nvG7aLy1ocM7NbG-j375-12" target="nvG7aLy1ocM7NbG-j375-1">
          <mxGeometry relative="1" as="geometry" />
        </mxCell>
        <mxCell id="nvG7aLy1ocM7NbG-j375-12" value="REST API" style="rounded=0;whiteSpace=wrap;html=1;" vertex="1" parent="1">
          <mxGeometry x="240" y="340" width="120" height="60" as="geometry" />
        </mxCell>
        <mxCell id="nvG7aLy1ocM7NbG-j375-17" style="edgeStyle=orthogonalEdgeStyle;rounded=0;orthogonalLoop=1;jettySize=auto;html=1;entryX=0.5;entryY=1;entryDx=0;entryDy=0;" edge="1" parent="1" source="nvG7aLy1ocM7NbG-j375-16" target="nvG7aLy1ocM7NbG-j375-7">
          <mxGeometry relative="1" as="geometry" />
        </mxCell>
        <mxCell id="nvG7aLy1ocM7NbG-j375-16" value="Generic Device (Keypads, RFID, etc)" style="rounded=0;whiteSpace=wrap;html=1;" vertex="1" parent="1">
          <mxGeometry x="400" y="440" width="120" height="60" as="geometry" />
        </mxCell>
        <mxCell id="nvG7aLy1ocM7NbG-j375-23" style="rounded=0;orthogonalLoop=1;jettySize=auto;html=1;exitX=1;exitY=0.5;exitDx=0;exitDy=0;entryX=0;entryY=0.5;entryDx=0;entryDy=0;" edge="1" parent="1" source="nvG7aLy1ocM7NbG-j375-18" target="nvG7aLy1ocM7NbG-j375-21">
          <mxGeometry relative="1" as="geometry" />
        </mxCell>
        <mxCell id="nvG7aLy1ocM7NbG-j375-26" style="rounded=0;orthogonalLoop=1;jettySize=auto;html=1;exitX=1;exitY=0.25;exitDx=0;exitDy=0;entryX=0;entryY=0.5;entryDx=0;entryDy=0;" edge="1" parent="1" source="nvG7aLy1ocM7NbG-j375-18" target="nvG7aLy1ocM7NbG-j375-20">
          <mxGeometry relative="1" as="geometry" />
        </mxCell>
        <mxCell id="nvG7aLy1ocM7NbG-j375-27" style="rounded=0;orthogonalLoop=1;jettySize=auto;html=1;exitX=1;exitY=0.75;exitDx=0;exitDy=0;entryX=0;entryY=0.5;entryDx=0;entryDy=0;" edge="1" parent="1" source="nvG7aLy1ocM7NbG-j375-18" target="nvG7aLy1ocM7NbG-j375-24">
          <mxGeometry relative="1" as="geometry" />
        </mxCell>
        <mxCell id="nvG7aLy1ocM7NbG-j375-18" value="Lock/Unlock Command Handler" style="rounded=0;whiteSpace=wrap;html=1;" vertex="1" parent="1">
          <mxGeometry x="400" y="140" width="120" height="60" as="geometry" />
        </mxCell>
        <mxCell id="nvG7aLy1ocM7NbG-j375-20" value="ZigBee&lt;br&gt;Z-Wave" style="rounded=0;whiteSpace=wrap;html=1;" vertex="1" parent="1">
          <mxGeometry x="600" y="60" width="120" height="60" as="geometry" />
        </mxCell>
        <mxCell id="nvG7aLy1ocM7NbG-j375-29" style="edgeStyle=orthogonalEdgeStyle;rounded=0;orthogonalLoop=1;jettySize=auto;html=1;entryX=0;entryY=0.5;entryDx=0;entryDy=0;" edge="1" parent="1" source="nvG7aLy1ocM7NbG-j375-21" target="nvG7aLy1ocM7NbG-j375-28">
          <mxGeometry relative="1" as="geometry" />
        </mxCell>
        <mxCell id="nvG7aLy1ocM7NbG-j375-21" value="HTTP/TCP" style="rounded=0;whiteSpace=wrap;html=1;" vertex="1" parent="1">
          <mxGeometry x="600" y="140" width="120" height="60" as="geometry" />
        </mxCell>
        <mxCell id="nvG7aLy1ocM7NbG-j375-24" value="&lt;p class=&quot;p1&quot;&gt;BLE&lt;/p&gt;" style="rounded=0;whiteSpace=wrap;html=1;" vertex="1" parent="1">
          <mxGeometry x="600" y="220" width="120" height="60" as="geometry" />
        </mxCell>
        <mxCell id="nvG7aLy1ocM7NbG-j375-28" value="Crestron Locks API" style="rounded=0;whiteSpace=wrap;html=1;" vertex="1" parent="1">
          <mxGeometry x="760" y="140" width="120" height="60" as="geometry" />
        </mxCell>
      </root>
    </mxGraphModel>
  </diagram>
</mxfile>
